nColumns=19
nRows=98
DataType=double
version=3
OpenSimVersion=4.1
endheader
time	ground_force_calcn_r_vx	ground_force_calcn_r_vy	ground_force_calcn_r_vz	ground_force_calcn_r_px	ground_force_calcn_r_py	ground_force_calcn_r_pz	ground_force_calcn_r_mx	ground_force_calcn_r_my	ground_force_calcn_r_mz	ground_force_calcn_l_vx	ground_force_calcn_l_vy	ground_force_calcn_l_vz	ground_force_calcn_l_px	ground_force_calcn_l_py	ground_force_calcn_l_pz	ground_force_calcn_l_mx	ground_force_calcn_l_my	ground_force_calcn_l_mz
0.17	0	0	0	0	0	0	0	0	0	0	0	0	0	0	0	0	0	0
0.18	0	0	0	0	0	0	0	0	0	0	0	0	0	0	0	0	0	0
0.19	0	0	0	0	0	0	0	0	0	0	0	0	0	0	0	0	0	0
0.2	0	0	0	0	0	0	0	0	0	0	0	0	0	0	0	0	0	0
0.21	0	0	0	0	0	0	0	0	0	0	0	0	0	0	0	0	0	0
0.22	0	0	0	0	0	0	0	0	0	0	0	0	0	0	0	0	0	0
0.23	0	0	0	0	0	0	0	0	0	0	0	0	0	0	0	0	0	0
0.24	0	0	0	0	0	0	0	0	0	0	0	0	0	0	0	0	0	0
0.25	0	0	0	0	0	0	0	0	0	-3.39739	33.9179	-1.04521	1.1543	0	-0.310113	0.201247	-2.00916	0.0619137
0.26	0	0	0	0	0	0	0	0	0	-9.0849	130.929	-1.12703	1.14331	0	-0.321371	0.315663	-4.54924	0.0391595
0.27	0	0	0	0	0	0	0	0	0	-20.4043	399.365	1.48373	1.14677	0	-0.320601	0.296546	-5.80418	-0.0215639
0.28	0	0	0	0	0	0	0	0	0	-53.6611	858.537	5.54948	1.14215	0	-0.315744	0.336663	-5.38636	-0.0348168
0.29	0	0	0	0	0	0	0	0	0	-118.432	1289.87	1.20362	1.13428	0	-0.311141	0.313592	-3.4154	-0.00318704
0.3	0	0	0	0	0	0	0	0	0	-183.77	1480.84	-21.569	1.12178	0	-0.311528	0.0716783	-0.577591	0.00841287
0.31	0	0	0	0	0	0	0	0	0	-225.76	1540.52	-50.2818	1.10058	0	-0.317062	-0.309168	2.10967	-0.0688585
0.32	0	0	0	0	0	0	0	0	0	-230.288	1643.62	-57.9223	1.07109	0	-0.320272	-0.543133	3.87645	-0.136609
0.33	0	0	0	0	0	0	0	0	0	-185.645	1794.64	-43.762	1.03666	0	-0.319494	-0.476232	4.60378	-0.112262
0.34	0	0	0	0	0	0	0	0	0	-113.677	1900.89	-34.405	1.00363	0	-0.319807	-0.282657	4.72656	-0.0855479
0.35	0	0	0	0	0	0	0	0	0	-54.708	1909.19	-42.9627	0.975477	0	-0.321825	-0.139274	4.86035	-0.109373
0.36	0	0	0	0	0	0	0	0	0	-10.8173	1842.86	-58.2262	0.94881	0	-0.323032	-0.0313619	5.34291	-0.168812
0.37	0	0	0	0	0	0	0	0	0	35.4687	1731.4	-68.767	0.920437	0	-0.322898	0.124957	6.09974	-0.242267
0.38	0	0	0	0	0	0	0	0	0	74.4863	1572.6	-74.4333	0.892678	0	-0.322654	0.322722	6.81349	-0.322492
0.39	0	0	0	0	0	0	0	0	0	98.9453	1366.11	-77.5811	0.866842	0	-0.322868	0.516735	7.13442	-0.405162
0.4	0	0	0	0	0	0	0	0	0	114.579	1128.15	-76.2866	0.841352	0	-0.32305	0.692326	6.81665	-0.46095
0.41	0	0	0	0	0	0	0	0	0	118.388	874.33	-68.2421	0.814701	0	-0.322567	0.787333	5.81471	-0.453842
0.42	0	0	0	0	0	0	0	0	0	112.506	616.902	-55.8997	0.780913	0	-0.322111	0.780612	4.28031	-0.387854
0.43	0	0	0	0	0	0	0	0	0	103.858	381.619	-43.0595	0.731879	0	-0.323684	0.677789	2.49048	-0.281011
0.44	0	0	0	0	0	0	0	0	0	83.7044	202.105	-30.0603	0.676827	0	-0.327583	0.356448	0.860648	-0.128009
0.45	0	0	0	0	0	0	0	0	0	49.3143	89.3848	-17.1631	0.648691	0	-0.331154	-0.122212	-0.221516	0.0425342
0.46	0	0	0	0	0	0	0	0	0	19.3905	33.2975	-7.51473	0.705098	0	-0.328962	-0.457038	-0.78483	0.177124
0.47	0	0	0	0	0	0	0	0	0	5.14467	11.4906	-2.73167	0.802684	0	-0.320843	-0.480077	-1.07225	0.254907
0.48	0	0	0	0	0	0	0	0	0	0	0	0	0	0	0	0	0	0
0.49	0	0	0	0	0	0	0	0	0	0	0	0	0	0	0	0	0	0
0.5	0	0	0	0	0	0	0	0	0	0	0	0	0	0	0	0	0	0
0.51	0	0	0	0	0	0	0	0	0	0	0	0	0	0	0	0	0	0
0.52	0	0	0	0	0	0	0	0	0	0	0	0	0	0	0	0	0	0
0.53	0	0	0	0	0	0	0	0	0	0	0	0	0	0	0	0	0	0
0.54	0	0	0	0	0	0	0	0	0	0	0	0	0	0	0	0	0	0
0.55	-4.51774	10.741	-3.5307	1.08191	0	-0.216535	0.139237	-0.331036	0.108816	0	0	0	0	0	0	0	0	0
0.56	-19.2977	34.2348	-9.08719	1.17814	0	-0.301482	-0.476379	0.845113	-0.224325	0	0	0	0	0	0	0	0	0
0.57	-64.3471	120.416	-17.7997	1.21809	0	-0.310852	-1.16376	2.17781	-0.321919	0	0	0	0	0	0	0	0	0
0.58	-139.954	304.192	-25.8274	1.21843	0	-0.309539	-1.45518	3.16284	-0.268541	0	0	0	0	0	0	0	0	0
0.59	-173.719	556.318	-26.1262	1.19148	0	-0.311109	-1.00594	3.22142	-0.151287	0	0	0	0	0	0	0	0	0
0.6	-136.221	843.152	-13.3194	1.13548	0	-0.316034	-0.270584	1.6748	-0.026457	0	0	0	0	0	0	0	0	0
0.61	-121.941	1126.71	12.1691	1.08521	0	-0.320831	0.122781	-1.13448	-0.012253	0	0	0	0	0	0	0	0	0
0.62	-154.205	1344.03	41.2186	1.05283	0	-0.323611	0.461224	-4.01998	-0.123284	0	0	0	0	0	0	0	0	0
0.63	-164.616	1506.5	59.8445	1.02195	0	-0.325785	0.650029	-5.9488	-0.236312	0	0	0	0	0	0	0	0	0
0.64	-122.927	1650.54	63.6097	0.983947	0	-0.32699	0.475013	-6.37797	-0.245799	0	0	0	0	0	0	0	0	0
0.65	-62.1459	1756.69	59.7955	0.945165	0	-0.326631	0.189466	-5.35568	-0.182301	0	0	0	0	0	0	0	0	0
0.66	-6.46	1798.18	54.9834	0.909873	0	-0.32596	0.0126204	-3.51297	-0.107417	0	0	0	0	0	0	0	0	0
0.67	48.4751	1776.38	52.042	0.876326	0	-0.325716	-0.045555	-1.66937	-0.0489071	0	0	0	0	0	0	0	0	0
0.68	102.699	1697.29	52.562	0.843158	0	-0.325568	-0.0259596	-0.42903	-0.0132862	0	0	0	0	0	0	0	0	0
0.69	150.518	1558.83	55.0275	0.810002	0	-0.325657	0.0014229	0.0147362	0.000520196	0	0	0	0	0	0	0	0	0
0.7	193.507	1356.99	56.2159	0.774228	0	-0.326348	-0.0212692	-0.149153	-0.00617894	0	0	0	0	0	0	0	0	0
0.71	232.08	1099.78	54.717	0.731792	0	-0.327479	-0.112602	-0.533599	-0.026548	0	0	0	0	0	0	0	0	0
0.72	247.68	820.027	50.9526	0.684712	0	-0.328648	-0.232167	-0.768667	-0.0477613	0	0	0	0	0	0	0	0	0
0.73	224.869	564.576	45.881	0.644076	0	-0.329233	-0.268279	-0.673563	-0.0547379	0	0	0	0	0	0	0	0	0
0.74	178.335	359.502	39.8989	0.618497	0	-0.328329	-0.138862	-0.27993	-0.0310677	0	0	0	0	0	0	0	0	0
0.75	124.768	206.969	32.3293	0.606352	0	-0.324946	0.151199	0.250813	0.0391778	0	0	0	0	0	0	0	0	0
0.76	71.1814	102.702	22.865	0.603452	0	-0.316445	0.515086	0.743177	0.165456	0	0	0	0	0	0	0	0	0
0.77	28.1361	41.8366	13.0852	0.62349	0	-0.292383	0.799728	1.18915	0.371929	0	0	0	0	0	0	0	0	0
0.78	5.75845	13.8868	5.76109	0.679424	0	-0.231	0.729767	1.75987	0.730102	0	0	0	0	0	0	0	0	0
0.79	0	0	0	0	0	0	0	0	0	0	0	0	0	0	0	0	0	0
0.8	0	0	0	0	0	0	0	0	0	0	0	0	0	0	0	0	0	0
0.81	0	0	0	0	0	0	0	0	0	0	0	0	0	0	0	0	0	0
0.82	0	0	0	0	0	0	0	0	0	0	0	0	0	0	0	0	0	0
0.83	0	0	0	0	0	0	0	0	0	0	0	0	0	0	0	0	0	0
0.84	0	0	0	0	0	0	0	0	0	-4.00741	11.3757	0.121044	1.11765	0	-0.286584	0.243099	-0.690076	-0.00734281
0.85	0	0	0	0	0	0	0	0	0	-17.5495	44.8211	0.959422	1.12789	0	-0.337959	1.20638	-3.08107	-0.0659521
0.86	0	0	0	0	0	0	0	0	0	-51.6205	167.885	6.22104	1.13545	0	-0.359894	1.88614	-6.13426	-0.227307
0.87	0	0	0	0	0	0	0	0	0	-97.727	460.748	19.6365	1.13642	0	-0.360917	1.91905	-9.04765	-0.3856
0.88	0	0	0	0	0	0	0	0	0	-126.267	877.712	35.3708	1.12961	0	-0.354358	1.53634	-10.6794	-0.430368
0.89	0	0	0	0	0	0	0	0	0	-138.92	1193.61	32.6274	1.11473	0	-0.349586	1.21915	-10.475	-0.286334
0.9	0	0	0	0	0	0	0	0	0	-165.517	1313.12	1.26698	1.09414	0	-0.352252	1.11624	-8.85562	-0.00854449
0.91	0	0	0	0	0	0	0	0	0	-197.656	1378.11	-30.3699	1.06876	0	-0.358725	0.99656	-6.94829	0.153122
0.92	0	0	0	0	0	0	0	0	0	-196.877	1510.03	-28.8184	1.03616	0	-0.359743	0.750565	-5.75675	0.109866
0.93	0	0	0	0	0	0	0	0	0	-148.229	1672.58	-5.22523	0.996883	0	-0.35749	0.474971	-5.35943	0.0167432
0.94	0	0	0	0	0	0	0	0	0	-85.9935	1766.74	5.54086	0.959261	0	-0.358486	0.247089	-5.07646	-0.0159208
0.95	0	0	0	0	0	0	0	0	0	-37.7327	1768.7	-4.36046	0.925056	0	-0.361694	0.0885044	-4.14859	0.0102277
0.96	0	0	0	0	0	0	0	0	0	13.8548	1722.31	-18.4273	0.88958	0	-0.362382	-0.0178619	-2.22045	0.0237569
0.97	0	0	0	0	0	0	0	0	0	76.9576	1639.6	-28.4961	0.852049	0	-0.360324	0.0262115	0.558442	-0.00970567
0.98	0	0	0	0	0	0	0	0	0	140.545	1502.23	-38.5477	0.813541	0	-0.358225	0.341516	3.65032	-0.0936685
0.99	0	0	0	0	0	0	0	0	0	202.162	1314.86	-49.1463	0.771567	0	-0.356707	0.972018	6.32202	-0.236301
1	0	0	0	0	0	0	0	0	0	249.851	1101.87	-54.7423	0.727138	0	-0.354771	1.79377	7.9107	-0.393014
1.01	0	0	0	0	0	0	0	0	0	261.488	876.707	-52.3554	0.687646	0	-0.352358	2.4384	8.17539	-0.48822
1.02	0	0	0	0	0	0	0	0	0	240.866	648.531	-45.468	0.65588	0	-0.350134	2.70763	7.29029	-0.511116
1.03	0	0	0	0	0	0	0	0	0	202.763	433.379	-38.4696	0.627404	0	-0.348793	2.63638	5.63492	-0.500194
1.04	0	0	0	0	0	0	0	0	0	151.489	254.308	-31.3881	0.59948	0	-0.346937	2.24756	3.77303	-0.465689
1.05	0	0	0	0	0	0	0	0	0	90.3861	127.348	-22.4829	0.574085	0	-0.341489	1.63391	2.30208	-0.406424
1.06	0	0	0	0	0	0	0	0	0	39.0151	52.5575	-12.7909	0.562313	0	-0.328105	1.04074	1.40198	-0.341201
1.07	0	0	0	0	0	0	0	0	0	11.3348	17.9125	-5.34582	0.665048	0	-0.288773	0.578151	0.913661	-0.272673
1.08	0	0	0	0	0	0	0	0	0	0	0	0	0	0	0	0	0	0
1.09	0	0	0	0	0	0	0	0	0	0	0	0	0	0	0	0	0	0
1.1	0	0	0	0	0	0	0	0	0	0	0	0	0	0	0	0	0	0
1.11	0	0	0	0	0	0	0	0	0	0	0	0	0	0	0	0	0	0
1.12	0	0	0	0	0	0	0	0	0	0	0	0	0	0	0	0	0	0
1.13	0	0	0	0	0	0	0	0	0	0	0	0	0	0	0	0	0	0
1.14	0	0	0	0	0	0	0	0	0	0	0	0	0	0	0	0	0	0
